# xmcd
#
# Track frame offsets:
#	150
#	27134
#	51967
#	75089
#	99205
#	122125
#	146997
#	169298
#	189762
#	213003
#	234055
#	251525
#	277636
#
# Disc length: 3953 seconds
#
# Revision: 2
# Processed by: cddbd v1.5.2PL0 Copyright (c) Steve Scherf et al.
# Submitted via: EZCDAudioConverter 8.0.2.1
#
DISCID=970f6f0d
DTITLE=Đan Trường - Vol 24. Lỡ Duyên Rồi
DYEAR=2011
DGENRE=World Pop
TTITLE0=Đan Trường - Bậu bình bát
TTITLE1=Đan Trường, Cẩm Ly - Lỡ duyên rồi
TTITLE2=Đan Trường - Chiếc áo bà ba
TTITLE3=Đan Trường - Cánh đồng hoa mua tím
TTITLE4=Đan Trường - Bông bần
TTITLE5=Đan Trường - Vợ chồng Tư Sậy
TTITLE6=Đan Trường - Hoàng hôn màu tím
TTITLE7=Đan Trường - Chuyện hẹn hò
TTITLE8=Đan Trường - Đau xót lý con cua (Remix)
TTITLE9=Đan Trường - Đò đưa
TTITLE10=Đan Trường, Thanh thảo - Nếu em là kẻ si tình
TTITLE11=Đan Trường - Nội tôi
TTITLE12=Đan Trường - Anh Ba Khía
EXTD=
EXTT0=
EXTT1=
EXTT2=
EXTT3=
EXTT4=
EXTT5=
EXTT6=
EXTT7=
EXTT8=
EXTT9=
EXTT10=
EXTT11=
EXTT12=
PLAYORDER=
